<svg xmlns="http://www.w3.org/2000/svg" width="1000" height="520" viewBox="0 0 1000 520">
<rect width="100%" height="100%" fill="white" />
<text x="500.00" y="28.00" font-family="Arial, sans-serif" font-size="20" font-weight="700" text-anchor="middle" fill="#111827">On-Time Detection Rate vs Episode</text>
<text x="500.00" y="502.00" font-family="Arial, sans-serif" font-size="13" font-weight="400" text-anchor="middle" fill="#111827">Episode</text>
<text x="18.00" y="260.00" font-family="Arial, sans-serif" font-size="13" font-weight="400" text-anchor="middle" fill="#111827">On-Time Rate</text>
<rect x="76" y="58" width="892" height="392" fill="#f9fafb" stroke="#d1d5db" />
<line x1="76" y1="58.00" x2="968" y2="58.00" stroke="#e5e7eb" />
<text x="66.00" y="62.00" font-family="Arial, sans-serif" font-size="11" font-weight="400" text-anchor="end" fill="#111827">1.03</text>
<line x1="76" y1="136.40" x2="968" y2="136.40" stroke="#e5e7eb" />
<text x="66.00" y="140.40" font-family="Arial, sans-serif" font-size="11" font-weight="400" text-anchor="end" fill="#111827">0.95</text>
<line x1="76" y1="214.80" x2="968" y2="214.80" stroke="#e5e7eb" />
<text x="66.00" y="218.80" font-family="Arial, sans-serif" font-size="11" font-weight="400" text-anchor="end" fill="#111827">0.87</text>
<line x1="76" y1="293.20" x2="968" y2="293.20" stroke="#e5e7eb" />
<text x="66.00" y="297.20" font-family="Arial, sans-serif" font-size="11" font-weight="400" text-anchor="end" fill="#111827">0.79</text>
<line x1="76" y1="371.60" x2="968" y2="371.60" stroke="#e5e7eb" />
<text x="66.00" y="375.60" font-family="Arial, sans-serif" font-size="11" font-weight="400" text-anchor="end" fill="#111827">0.72</text>
<line x1="76" y1="450.00" x2="968" y2="450.00" stroke="#e5e7eb" />
<text x="66.00" y="454.00" font-family="Arial, sans-serif" font-size="11" font-weight="400" text-anchor="end" fill="#111827">0.64</text>
<line x1="76.00" y1="58" x2="76.00" y2="450" stroke="#f3f4f6" />
<text x="76.00" y="472.00" font-family="Arial, sans-serif" font-size="11" font-weight="400" text-anchor="middle" fill="#111827">1</text>
<line x1="156.48" y1="58" x2="156.48" y2="450" stroke="#f3f4f6" />
<text x="156.48" y="472.00" font-family="Arial, sans-serif" font-size="11" font-weight="400" text-anchor="middle" fill="#111827">37</text>
<line x1="236.96" y1="58" x2="236.96" y2="450" stroke="#f3f4f6" />
<text x="236.96" y="472.00" font-family="Arial, sans-serif" font-size="11" font-weight="400" text-anchor="middle" fill="#111827">73</text>
<line x1="317.44" y1="58" x2="317.44" y2="450" stroke="#f3f4f6" />
<text x="317.44" y="472.00" font-family="Arial, sans-serif" font-size="11" font-weight="400" text-anchor="middle" fill="#111827">109</text>
<line x1="397.92" y1="58" x2="397.92" y2="450" stroke="#f3f4f6" />
<text x="397.92" y="472.00" font-family="Arial, sans-serif" font-size="11" font-weight="400" text-anchor="middle" fill="#111827">145</text>
<line x1="478.41" y1="58" x2="478.41" y2="450" stroke="#f3f4f6" />
<text x="478.41" y="472.00" font-family="Arial, sans-serif" font-size="11" font-weight="400" text-anchor="middle" fill="#111827">181</text>
<line x1="558.89" y1="58" x2="558.89" y2="450" stroke="#f3f4f6" />
<text x="558.89" y="472.00" font-family="Arial, sans-serif" font-size="11" font-weight="400" text-anchor="middle" fill="#111827">217</text>
<line x1="639.37" y1="58" x2="639.37" y2="450" stroke="#f3f4f6" />
<text x="639.37" y="472.00" font-family="Arial, sans-serif" font-size="11" font-weight="400" text-anchor="middle" fill="#111827">253</text>
<line x1="719.85" y1="58" x2="719.85" y2="450" stroke="#f3f4f6" />
<text x="719.85" y="472.00" font-family="Arial, sans-serif" font-size="11" font-weight="400" text-anchor="middle" fill="#111827">289</text>
<line x1="800.33" y1="58" x2="800.33" y2="450" stroke="#f3f4f6" />
<text x="800.33" y="472.00" font-family="Arial, sans-serif" font-size="11" font-weight="400" text-anchor="middle" fill="#111827">325</text>
<line x1="880.81" y1="58" x2="880.81" y2="450" stroke="#f3f4f6" />
<text x="880.81" y="472.00" font-family="Arial, sans-serif" font-size="11" font-weight="400" text-anchor="middle" fill="#111827">361</text>
<line x1="961.29" y1="58" x2="961.29" y2="450" stroke="#f3f4f6" />
<text x="961.29" y="472.00" font-family="Arial, sans-serif" font-size="11" font-weight="400" text-anchor="middle" fill="#111827">397</text>
<line x1="968.00" y1="58" x2="968.00" y2="450" stroke="#f3f4f6" />
<text x="968.00" y="472.00" font-family="Arial, sans-serif" font-size="11" font-weight="400" text-anchor="middle" fill="#111827">400</text>
<polyline points="76.00,85.03 78.24,85.03 80.47,85.03 82.71,85.03 84.94,85.03 87.18,211.76 89.41,85.03 91.65,85.03 93.88,85.03 96.12,85.03 98.36,85.03 100.59,85.03 102.83,85.03 105.06,85.03 107.30,85.03 109.53,85.03 111.77,85.03 114.01,85.03 116.24,85.03 118.48,85.03 120.71,85.03 122.95,85.03 125.18,85.03 127.42,85.03 129.65,85.03 131.89,85.03 134.13,85.03 136.36,85.03 138.60,85.03 140.83,85.03 143.07,85.03 145.30,85.03 147.54,85.03 149.77,85.03 152.01,85.03 154.25,85.03 156.48,85.03 158.72,85.03 160.95,85.03 163.19,85.03 165.42,85.03 167.66,85.03 169.89,85.03 172.13,85.03 174.37,85.03 176.60,85.03 178.84,85.03 181.07,85.03 183.31,85.03 185.54,85.03 187.78,85.03 190.02,287.79 192.25,85.03 194.49,85.03 196.72,85.03 198.96,85.03 201.19,85.03 203.43,85.03 205.66,85.03 207.90,85.03 210.14,85.03 212.37,85.03 214.61,85.03 216.84,85.03 219.08,85.03 221.31,85.03 223.55,85.03 225.78,85.03 228.02,85.03 230.26,85.03 232.49,85.03 234.73,85.03 236.96,85.03 239.20,85.03 241.43,85.03 243.67,85.03 245.90,85.03 248.14,85.03 250.38,85.03 252.61,85.03 254.85,85.03 257.08,85.03 259.32,85.03 261.55,85.03 263.79,85.03 266.03,85.03 268.26,85.03 270.50,287.79 272.73,85.03 274.97,85.03 277.20,85.03 279.44,85.03 281.67,85.03 283.91,85.03 286.15,85.03 288.38,85.03 290.62,85.03 292.85,85.03 295.09,85.03 297.32,85.03 299.56,85.03 301.79,85.03 304.03,85.03 306.27,85.03 308.50,85.03 310.74,197.68 312.97,85.03 315.21,85.03 317.44,85.03 319.68,85.03 321.91,85.03 324.15,422.97 326.39,85.03 328.62,85.03 330.86,85.03 333.09,85.03 335.33,85.03 337.56,85.03 339.80,85.03 342.04,85.03 344.27,85.03 346.51,85.03 348.74,85.03 350.98,85.03 353.21,85.03 355.45,85.03 357.68,85.03 359.92,85.03 362.16,254.00 364.39,85.03 366.63,85.03 368.86,85.03 371.10,85.03 373.33,85.03 375.57,85.03 377.80,85.03 380.04,85.03 382.28,85.03 384.51,85.03 386.75,85.03 388.98,85.03 391.22,85.03 393.45,85.03 395.69,85.03 397.92,85.03 400.16,85.03 402.40,85.03 404.63,85.03 406.87,85.03 409.10,85.03 411.34,197.68 413.57,85.03 415.81,85.03 418.05,85.03 420.28,85.03 422.52,85.03 424.75,85.03 426.99,85.03 429.22,85.03 431.46,85.03 433.69,85.03 435.93,85.03 438.17,85.03 440.40,85.03 442.64,85.03 444.87,85.03 447.11,85.03 449.34,85.03 451.58,85.03 453.81,85.03 456.05,85.03 458.29,85.03 460.52,85.03 462.76,85.03 464.99,85.03 467.23,85.03 469.46,85.03 471.70,85.03 473.93,85.03 476.17,85.03 478.41,85.03 480.64,85.03 482.88,338.48 485.11,85.03 487.35,85.03 489.58,85.03 491.82,85.03 494.06,85.03 496.29,85.03 498.53,85.03 500.76,85.03 503.00,85.03 505.23,85.03 507.47,85.03 509.70,85.03 511.94,85.03 514.18,85.03 516.41,85.03 518.65,85.03 520.88,85.03 523.12,85.03 525.35,85.03 527.59,85.03 529.82,85.03 532.06,85.03 534.30,85.03 536.53,85.03 538.77,85.03 541.00,85.03 543.24,85.03 545.47,85.03 547.71,85.03 549.94,85.03 552.18,85.03 554.42,85.03 556.65,85.03 558.89,85.03 561.12,85.03 563.36,85.03 565.59,85.03 567.83,85.03 570.07,85.03 572.30,85.03 574.54,85.03 576.77,85.03 579.01,85.03 581.24,85.03 583.48,85.03 585.71,85.03 587.95,85.03 590.19,85.03 592.42,85.03 594.66,85.03 596.89,85.03 599.13,85.03 601.36,85.03 603.60,85.03 605.83,85.03 608.07,85.03 610.31,85.03 612.54,85.03 614.78,85.03 617.01,85.03 619.25,85.03 621.48,85.03 623.72,254.00 625.95,85.03 628.19,85.03 630.43,85.03 632.66,229.86 634.90,85.03 637.13,85.03 639.37,85.03 641.60,85.03 643.84,85.03 646.08,85.03 648.31,85.03 650.55,85.03 652.78,85.03 655.02,85.03 657.25,85.03 659.49,85.03 661.72,85.03 663.96,85.03 666.20,85.03 668.43,85.03 670.67,85.03 672.90,85.03 675.14,85.03 677.37,85.03 679.61,85.03 681.84,85.03 684.08,85.03 686.32,85.03 688.55,85.03 690.79,85.03 693.02,85.03 695.26,85.03 697.49,85.03 699.73,85.03 701.96,85.03 704.20,85.03 706.44,85.03 708.67,85.03 710.91,85.03 713.14,85.03 715.38,85.03 717.61,85.03 719.85,85.03 722.09,85.03 724.32,85.03 726.56,85.03 728.79,85.03 731.03,85.03 733.26,85.03 735.50,85.03 737.73,85.03 739.97,85.03 742.21,85.03 744.44,85.03 746.68,85.03 748.91,85.03 751.15,85.03 753.38,85.03 755.62,85.03 757.85,85.03 760.09,85.03 762.33,85.03 764.56,85.03 766.80,85.03 769.03,85.03 771.27,85.03 773.50,85.03 775.74,85.03 777.97,85.03 780.21,85.03 782.45,85.03 784.68,85.03 786.92,85.03 789.15,85.03 791.39,85.03 793.62,85.03 795.86,85.03 798.10,85.03 800.33,85.03 802.57,85.03 804.80,85.03 807.04,85.03 809.27,229.86 811.51,211.76 813.74,85.03 815.98,85.03 818.22,85.03 820.45,85.03 822.69,85.03 824.92,85.03 827.16,287.79 829.39,85.03 831.63,85.03 833.86,85.03 836.10,85.03 838.34,85.03 840.57,85.03 842.81,85.03 845.04,85.03 847.28,85.03 849.51,229.86 851.75,85.03 853.98,85.03 856.22,85.03 858.46,85.03 860.69,85.03 862.93,85.03 865.16,85.03 867.40,85.03 869.63,85.03 871.87,85.03 874.11,254.00 876.34,85.03 878.58,85.03 880.81,85.03 883.05,85.03 885.28,85.03 887.52,85.03 889.75,85.03 891.99,85.03 894.23,85.03 896.46,85.03 898.70,85.03 900.93,85.03 903.17,85.03 905.40,85.03 907.64,85.03 909.87,85.03 912.11,85.03 914.35,85.03 916.58,85.03 918.82,85.03 921.05,85.03 923.29,85.03 925.52,85.03 927.76,85.03 929.99,85.03 932.23,85.03 934.47,85.03 936.70,85.03 938.94,85.03 941.17,85.03 943.41,85.03 945.64,85.03 947.88,85.03 950.12,85.03 952.35,85.03 954.59,85.03 956.82,85.03 959.06,85.03 961.29,85.03 963.53,85.03 965.76,85.03 968.00,85.03" fill="none" stroke="#2563eb" stroke-width="1.2" opacity="0.35" stroke-linejoin="round" stroke-linecap="round" />
<polyline points="76.00,85.03 78.24,85.03 80.47,85.03 82.71,85.03 84.94,85.03 87.18,211.76 89.41,85.03 91.65,85.03 93.88,85.03 96.12,85.03 98.36,85.03 100.59,85.03 102.83,85.03 105.06,85.03 107.30,85.03 109.53,85.03 111.77,85.03 114.01,85.03 116.24,85.03 118.48,85.03 120.71,85.03 122.95,85.03 125.18,85.03 127.42,85.03 129.65,90.10 131.89,90.10 134.13,90.10 136.36,90.10 138.60,90.10 140.83,90.10 143.07,85.03 145.30,85.03 147.54,85.03 149.77,85.03 152.01,85.03 154.25,85.03 156.48,85.03 158.72,85.03 160.95,85.03 163.19,85.03 165.42,85.03 167.66,85.03 169.89,85.03 172.13,85.03 174.37,85.03 176.60,85.03 178.84,85.03 181.07,85.03 183.31,85.03 185.54,85.03 187.78,85.03 190.02,93.14 192.25,93.14 194.49,93.14 196.72,93.14 198.96,93.14 201.19,93.14 203.43,93.14 205.66,93.14 207.90,93.14 210.14,93.14 212.37,93.14 214.61,93.14 216.84,93.14 219.08,93.14 221.31,93.14 223.55,93.14 225.78,93.14 228.02,93.14 230.26,93.14 232.49,93.14 234.73,93.14 236.96,93.14 239.20,93.14 241.43,93.14 243.67,93.14 245.90,85.03 248.14,85.03 250.38,85.03 252.61,85.03 254.85,85.03 257.08,85.03 259.32,85.03 261.55,85.03 263.79,85.03 266.03,85.03 268.26,85.03 270.50,93.14 272.73,93.14 274.97,93.14 277.20,93.14 279.44,93.14 281.67,93.14 283.91,93.14 286.15,93.14 288.38,93.14 290.62,93.14 292.85,93.14 295.09,93.14 297.32,93.14 299.56,93.14 301.79,93.14 304.03,93.14 306.27,93.14 308.50,93.14 310.74,97.65 312.97,97.65 315.21,97.65 317.44,97.65 319.68,97.65 321.91,97.65 324.15,111.17 326.39,103.06 328.62,103.06 330.86,103.06 333.09,103.06 335.33,103.06 337.56,103.06 339.80,103.06 342.04,103.06 344.27,103.06 346.51,103.06 348.74,103.06 350.98,103.06 353.21,103.06 355.45,103.06 357.68,103.06 359.92,103.06 362.16,109.82 364.39,109.82 366.63,105.31 368.86,105.31 371.10,105.31 373.33,105.31 375.57,105.31 377.80,105.31 380.04,91.79 382.28,91.79 384.51,91.79 386.75,91.79 388.98,91.79 391.22,91.79 393.45,91.79 395.69,91.79 397.92,91.79 400.16,91.79 402.40,91.79 404.63,91.79 406.87,91.79 409.10,91.79 411.34,96.30 413.57,96.30 415.81,96.30 418.05,89.54 420.28,89.54 422.52,89.54 424.75,89.54 426.99,89.54 429.22,89.54 431.46,89.54 433.69,89.54 435.93,89.54 438.17,89.54 440.40,89.54 442.64,89.54 444.87,89.54 447.11,89.54 449.34,89.54 451.58,89.54 453.81,89.54 456.05,89.54 458.29,89.54 460.52,89.54 462.76,89.54 464.99,89.54 467.23,85.03 469.46,85.03 471.70,85.03 473.93,85.03 476.17,85.03 478.41,85.03 480.64,85.03 482.88,95.17 485.11,95.17 487.35,95.17 489.58,95.17 491.82,95.17 494.06,95.17 496.29,95.17 498.53,95.17 500.76,95.17 503.00,95.17 505.23,95.17 507.47,95.17 509.70,95.17 511.94,95.17 514.18,95.17 516.41,95.17 518.65,95.17 520.88,95.17 523.12,95.17 525.35,95.17 527.59,95.17 529.82,95.17 532.06,95.17 534.30,95.17 536.53,95.17 538.77,85.03 541.00,85.03 543.24,85.03 545.47,85.03 547.71,85.03 549.94,85.03 552.18,85.03 554.42,85.03 556.65,85.03 558.89,85.03 561.12,85.03 563.36,85.03 565.59,85.03 567.83,85.03 570.07,85.03 572.30,85.03 574.54,85.03 576.77,85.03 579.01,85.03 581.24,85.03 583.48,85.03 585.71,85.03 587.95,85.03 590.19,85.03 592.42,85.03 594.66,85.03 596.89,85.03 599.13,85.03 601.36,85.03 603.60,85.03 605.83,85.03 608.07,85.03 610.31,85.03 612.54,85.03 614.78,85.03 617.01,85.03 619.25,85.03 621.48,85.03 623.72,91.79 625.95,91.79 628.19,91.79 630.43,91.79 632.66,97.59 634.90,97.59 637.13,97.59 639.37,97.59 641.60,97.59 643.84,97.59 646.08,97.59 648.31,97.59 650.55,97.59 652.78,97.59 655.02,97.59 657.25,97.59 659.49,97.59 661.72,97.59 663.96,97.59 666.20,97.59 668.43,97.59 670.67,97.59 672.90,97.59 675.14,97.59 677.37,97.59 679.61,90.83 681.84,90.83 684.08,90.83 686.32,90.83 688.55,85.03 690.79,85.03 693.02,85.03 695.26,85.03 697.49,85.03 699.73,85.03 701.96,85.03 704.20,85.03 706.44,85.03 708.67,85.03 710.91,85.03 713.14,85.03 715.38,85.03 717.61,85.03 719.85,85.03 722.09,85.03 724.32,85.03 726.56,85.03 728.79,85.03 731.03,85.03 733.26,85.03 735.50,85.03 737.73,85.03 739.97,85.03 742.21,85.03 744.44,85.03 746.68,85.03 748.91,85.03 751.15,85.03 753.38,85.03 755.62,85.03 757.85,85.03 760.09,85.03 762.33,85.03 764.56,85.03 766.80,85.03 769.03,85.03 771.27,85.03 773.50,85.03 775.74,85.03 777.97,85.03 780.21,85.03 782.45,85.03 784.68,85.03 786.92,85.03 789.15,85.03 791.39,85.03 793.62,85.03 795.86,85.03 798.10,85.03 800.33,85.03 802.57,85.03 804.80,85.03 807.04,85.03 809.27,90.83 811.51,95.90 813.74,95.90 815.98,95.90 818.22,95.90 820.45,95.90 822.69,95.90 824.92,95.90 827.16,104.01 829.39,104.01 831.63,104.01 833.86,104.01 836.10,104.01 838.34,104.01 840.57,104.01 842.81,104.01 845.04,104.01 847.28,104.01 849.51,109.80 851.75,109.80 853.98,109.80 856.22,109.80 858.46,109.80 860.69,109.80 862.93,109.80 865.16,104.01 867.40,98.94 869.63,98.94 871.87,98.94 874.11,105.70 876.34,105.70 878.58,105.70 880.81,105.70 883.05,97.59 885.28,97.59 887.52,97.59 889.75,97.59 891.99,97.59 894.23,97.59 896.46,97.59 898.70,97.59 900.93,97.59 903.17,97.59 905.40,91.79 907.64,91.79 909.87,91.79 912.11,91.79 914.35,91.79 916.58,91.79 918.82,91.79 921.05,91.79 923.29,91.79 925.52,91.79 927.76,91.79 929.99,85.03 932.23,85.03 934.47,85.03 936.70,85.03 938.94,85.03 941.17,85.03 943.41,85.03 945.64,85.03 947.88,85.03 950.12,85.03 952.35,85.03 954.59,85.03 956.82,85.03 959.06,85.03 961.29,85.03 963.53,85.03 965.76,85.03 968.00,85.03" fill="none" stroke="#2563eb" stroke-width="2.4" opacity="1.0" stroke-linejoin="round" stroke-linecap="round" />
<line x1="88" y1="76" x2="114" y2="76" stroke="#2563eb" stroke-width="3" />
<text x="122.00" y="80.00" font-family="Arial, sans-serif" font-size="12" font-weight="400" text-anchor="start" fill="#111827">on_time_detection_rate + 25-ep MA</text>
</svg>